<svg width="1034" height="352" viewBox="0 0 1034 352" fill="none" xmlns="http://www.w3.org/2000/svg">
<path d="M157.542 0H139.246V7.928C240.481 7.928 269.485 99.296 269.485 175.637C269.485 251.978 240.481 342.736 139.246 342.736V351.274H157.542C272.193 351.274 316.932 261.577 316.932 175.637C316.932 89.697 272.193 0 157.542 0Z" fill="black"/>
<path d="M51.6493 143.316H42.7212C42.7212 316.513 36.6222 342.737 0.64125 342.737H0.03125V351.274H115.073V342.737H114.463C55.3083 342.737 51.6493 325.051 51.6493 143.316Z" fill="black"/>
<path d="M463.046 183.57H452.679L414.656 265.899H425.181C442.795 229.5 461.523 229.089 484.088 229.089L484.032 220.771C461.866 220.771 452.391 207.384 463.046 183.57Z" fill="black"/>
<path d="M412.195 300.656H401.603C392.354 324.094 370.709 342.735 344.887 342.735V351.273H438.804V342.735C415.629 342.735 403.657 324.44 412.195 300.656Z" fill="black"/>
<path d="M667.923 300.656L540.465 0H531.719L512.068 42.568L623.071 303.457C633.16 328.319 615.246 342.736 595.424 342.736V351.274H718.014V342.736C689.599 342.736 678.714 327.247 667.923 300.656Z" fill="black"/>
<path d="M951.638 113.433C951.638 136.608 944.93 155.513 909.559 155.513V164.441C944.93 164.441 951.638 183.346 951.638 206.521H960.176V112.824H951.638V113.433Z" fill="black"/>
<path d="M1024.82 255.498C1024.82 323.801 1004.69 342.738 983.352 342.738V351.272H1033.97V253.086H1024.82V255.498Z" fill="black"/>
<path d="M983.352 0V8.523C1006.52 8.523 1024.82 25.394 1024.82 51.008V51.618H1033.97V0H983.352Z" fill="black"/>
<path d="M849.183 296.266V0H769.023V8.523C792.198 8.523 805.103 22.323 805.103 53.425V296.265C805.103 327.367 792.198 342.737 769.023 342.737V351.273H891.262V342.737C868.088 342.737 849.183 327.368 849.183 296.266Z" fill="black"/>
</svg>
